# Blender 4.1.1
# www.blender.org
o Cube
v -0.800000 0.000000 0.800000
v -0.800000 1.600000 0.800000
v -0.800000 0.000000 -0.800000
v -0.800000 1.600000 -0.800000
v 0.800000 0.000000 0.800000
v 0.800000 1.600000 0.800000
v 0.800000 0.000000 -0.800000
v 0.800000 1.600000 -0.800000
vn -1.0000 -0.0000 -0.0000
vn -0.0000 -0.0000 -1.0000
vn 1.0000 -0.0000 -0.0000
vn -0.0000 -0.0000 1.0000
vn -0.0000 -1.0000 -0.0000
vn -0.0000 1.0000 -0.0000
vt 1.000000 1.000000
vt -0.000000 0.000000
vt 1.000000 -0.000000
vt 1.000000 0.000000
vt 0.000000 1.000000
vt 0.000000 0.000000
vt 0.000000 1.000000
vt 1.000000 0.000000
vt 1.000000 1.000000
vt 0.000000 0.000000
s 0
f 2/1/1 3/2/1 1/3/1
f 4/1/2 7/2/2 3/3/2
f 8/1/3 5/2/3 7/3/3
f 6/1/4 1/2/4 5/3/4
f 7/4/5 1/5/5 3/6/5
f 4/7/6 6/8/6 8/9/6
f 2/1/1 4/5/1 3/2/1
f 4/1/2 8/5/2 7/2/2
f 8/1/3 6/5/3 5/2/3
f 6/1/4 2/5/4 1/2/4
f 7/4/5 5/1/5 1/5/5
f 4/7/6 2/10/6 6/8/6
